{
 "cells": [
  {
   "cell_type": "code",
   "execution_count": 28,
   "metadata": {},
   "outputs": [],
   "source": [
    "import subprocess\n",
    "import ffmpeg\n",
    "import os\n",
    "from tqdm import tqdm"
   ]
  },
  {
   "cell_type": "code",
   "execution_count": 29,
   "metadata": {},
   "outputs": [],
   "source": [
    "def webm_to_wav(input_file, output_file):\n",
    "    if input_file.endswith(\".webm\") and not input_file.endswith('.DS_Store'):\n",
    "        subprocess.run(['ffmpeg', '-i', input_file, '-vn', '-acodec', 'pcm_s16le', '-ar', '44100', '-ac', '2', output_file], check=True)"
   ]
  },
  {
   "cell_type": "code",
   "execution_count": 30,
   "metadata": {},
   "outputs": [
    {
     "name": "stderr",
     "output_type": "stream",
     "text": [
      "  0%|          | 0/1 [00:00<?, ?it/s]ffmpeg version 6.1.1 Copyright (c) 2000-2023 the FFmpeg developers\n",
      "  built with Apple clang version 15.0.0 (clang-1500.1.0.2.5)\n",
      "  configuration: --prefix=/opt/homebrew/Cellar/ffmpeg/6.1.1_4 --enable-shared --enable-pthreads --enable-version3 --cc=clang --host-cflags= --host-ldflags='-Wl,-ld_classic' --enable-ffplay --enable-gnutls --enable-gpl --enable-libaom --enable-libaribb24 --enable-libbluray --enable-libdav1d --enable-libharfbuzz --enable-libjxl --enable-libmp3lame --enable-libopus --enable-librav1e --enable-librist --enable-librubberband --enable-libsnappy --enable-libsrt --enable-libssh --enable-libsvtav1 --enable-libtesseract --enable-libtheora --enable-libvidstab --enable-libvmaf --enable-libvorbis --enable-libvpx --enable-libwebp --enable-libx264 --enable-libx265 --enable-libxml2 --enable-libxvid --enable-lzma --enable-libfontconfig --enable-libfreetype --enable-frei0r --enable-libass --enable-libopencore-amrnb --enable-libopencore-amrwb --enable-libopenjpeg --enable-libopenvino --enable-libspeex --enable-libsoxr --enable-libzmq --enable-libzimg --disable-libjack --disable-indev=jack --enable-videotoolbox --enable-audiotoolbox --enable-neon\n",
      "  libavutil      58. 29.100 / 58. 29.100\n",
      "  libavcodec     60. 31.102 / 60. 31.102\n",
      "  libavformat    60. 16.100 / 60. 16.100\n",
      "  libavdevice    60.  3.100 / 60.  3.100\n",
      "  libavfilter     9. 12.100 /  9. 12.100\n",
      "  libswscale      7.  5.100 /  7.  5.100\n",
      "  libswresample   4. 12.100 /  4. 12.100\n",
      "  libpostproc    57.  3.100 / 57.  3.100\n",
      "Input #0, matroska,webm, from 'WEBMAudio/1711577368998.webm':\n",
      "  Metadata:\n",
      "    encoder         : Chrome\n",
      "  Duration: N/A, start: 0.000000, bitrate: N/A\n",
      "  Stream #0:0(eng): Audio: opus, 48000 Hz, mono, fltp (default)\n",
      "Stream mapping:\n",
      "  Stream #0:0 -> #0:0 (opus (native) -> pcm_s16le (native))\n",
      "Press [q] to stop, [?] for help\n",
      "Output #0, wav, to 'WAVAudio/1711577368998.wav':\n",
      "  Metadata:\n",
      "    ISFT            : Lavf60.16.100\n",
      "  Stream #0:0(eng): Audio: pcm_s16le ([1][0][0][0] / 0x0001), 44100 Hz, stereo, s16, 1411 kb/s (default)\n",
      "    Metadata:\n",
      "      encoder         : Lavc60.31.102 pcm_s16le\n",
      "[out#0/wav @ 0x13c7223c0] video:0kB audio:1881kB subtitle:0kB other streams:0kB global headers:0kB muxing overhead: 0.004049%\n",
      "size=    1881kB time=00:00:10.91 bitrate=1411.4kbits/s speed= 416x    \n",
      "100%|██████████| 1/1 [00:00<00:00,  5.78it/s]\n"
     ]
    }
   ],
   "source": [
    "input_path = \"WEBMAudio\"\n",
    "output_path = \"WAVAudio\"\n",
    "for file in tqdm(os.listdir(input_path)):\n",
    "    webm_to_wav(os.path.join(input_path, file), os.path.join(output_path, file.split('.')[0] + '.wav'))"
   ]
  },
  {
   "cell_type": "code",
   "execution_count": null,
   "metadata": {},
   "outputs": [],
   "source": []
  }
 ],
 "metadata": {
  "kernelspec": {
   "display_name": "beatml",
   "language": "python",
   "name": "python3"
  },
  "language_info": {
   "codemirror_mode": {
    "name": "ipython",
    "version": 3
   },
   "file_extension": ".py",
   "mimetype": "text/x-python",
   "name": "python",
   "nbconvert_exporter": "python",
   "pygments_lexer": "ipython3",
   "version": "3.11.8"
  }
 },
 "nbformat": 4,
 "nbformat_minor": 2
}
